<svg id="Capa_1" data-name="Capa 1" xmlns="http://www.w3.org/2000/svg" xmlns:xlink="http://www.w3.org/1999/xlink" viewBox="0 0 561 159.75"><defs><style>.cls-1,.cls-5{fill:none;}.cls-2{opacity:0.38;}.cls-3{clip-path:url(#clip-path);}.cls-4{clip-path:url(#clip-path-2);}.cls-5{stroke:#2dbdef;stroke-miterlimit:10;}.cls-6{clip-path:url(#clip-path-3);}.cls-7{clip-path:url(#clip-path-4);}.cls-8{clip-path:url(#clip-path-5);}.cls-9{clip-path:url(#clip-path-6);}.cls-10{clip-path:url(#clip-path-7);}.cls-11{clip-path:url(#clip-path-8);}.cls-12{clip-path:url(#clip-path-9);}.cls-13{clip-path:url(#clip-path-10);}.cls-14{clip-path:url(#clip-path-11);}.cls-15{fill:#2dbdef;}</style><clipPath id="clip-path"><rect class="cls-1" x="91.4" y="37.46" width="379.83" height="68.84"/></clipPath><clipPath id="clip-path-2"><rect class="cls-1" x="91.4" y="37.45" width="379.83" height="68.86"/></clipPath><clipPath id="clip-path-3"><rect class="cls-1" x="92.5" y="78.13" width="336.47" height="42.26"/></clipPath><clipPath id="clip-path-4"><rect class="cls-1" x="92.5" y="78.14" width="336.47" height="42.25"/></clipPath><clipPath id="clip-path-5"><rect class="cls-1" x="63.75" y="48.77" width="35.6" height="35.62"/></clipPath><clipPath id="clip-path-6"><rect class="cls-1" x="63.75" y="48.78" width="35.6" height="35.62"/></clipPath><clipPath id="clip-path-7"><rect class="cls-1" x="58.34" y="101.03" width="35.6" height="35.58"/></clipPath><clipPath id="clip-path-8"><rect class="cls-1" x="58.34" y="101.02" width="35.6" height="35.59"/></clipPath><clipPath id="clip-path-9"><rect class="cls-1" x="427.08" y="61.4" width="35.6" height="35.58"/></clipPath><clipPath id="clip-path-10"><rect class="cls-1" x="427.08" y="61.39" width="35.6" height="35.59"/></clipPath><clipPath id="clip-path-11"><rect class="cls-1" x="470.18" y="23.14" width="32.47" height="32.49"/></clipPath></defs><g class="cls-2"><g class="cls-3"><g class="cls-4"><polyline class="cls-5" points="92.5 78.13 119.11 104.73 280.6 104.73 322.55 62.48 403.93 62.48 427.4 39 471.22 39"/></g></g></g><g class="cls-2"><g class="cls-6"><g class="cls-7"><polyline class="cls-5" points="92.5 118.82 298.29 118.82 339.77 79.69 428.97 79.69"/></g></g></g><g class="cls-8"><g class="cls-9"><path class="cls-5" d="M97.78,66.58A16.24,16.24,0,1,1,81.55,50.35,16.23,16.23,0,0,1,97.78,66.58Z"/></g></g><g class="cls-10"><g class="cls-11"><path class="cls-5" d="M92.38,118.82a16.24,16.24,0,1,1-16.23-16.24A16.23,16.23,0,0,1,92.38,118.82Z"/></g></g><g class="cls-12"><g class="cls-13"><path class="cls-5" d="M461.12,79.19A16.24,16.24,0,1,1,444.88,63,16.24,16.24,0,0,1,461.12,79.19Z"/></g></g><g class="cls-14"><g class="cls-14"><path class="cls-15" d="M502.65,39.39a16.24,16.24,0,1,1-16.23-16.23,16.24,16.24,0,0,1,16.23,16.23"/></g></g></svg>