<svg id="Capa_1" data-name="Capa 1" xmlns="http://www.w3.org/2000/svg" viewBox="0 0 561 159.75"><defs><style>.cls-1{opacity:0.5;}.cls-2{fill:#2bbcee;}</style></defs><g class="cls-1"><circle class="cls-2" cx="412.61" cy="79.88" r="5.73"/><circle class="cls-2" cx="534.27" cy="79.88" r="5.73"/><circle class="cls-2" cx="432.89" cy="79.88" r="5.73"/><circle class="cls-2" cx="392.34" cy="79.88" r="5.73"/><circle class="cls-2" cx="453.16" cy="79.88" r="5.73"/><circle class="cls-2" cx="473.44" cy="79.88" r="5.73"/><circle class="cls-2" cx="311.23" cy="79.88" r="5.73"/><circle class="cls-2" cx="331.51" cy="79.88" r="5.73"/><circle class="cls-2" cx="290.95" cy="79.88" r="5.73"/><circle class="cls-2" cx="351.78" cy="79.88" r="5.73"/><circle class="cls-2" cx="372.06" cy="79.88" r="5.73"/><circle class="cls-2" cx="493.72" cy="79.88" r="5.73"/><circle class="cls-2" cx="513.99" cy="79.88" r="5.73"/><circle class="cls-2" cx="148.39" cy="79.88" r="5.73"/><circle class="cls-2" cx="270.05" cy="79.88" r="5.73"/><circle class="cls-2" cx="168.66" cy="79.88" r="5.73"/><circle class="cls-2" cx="128.11" cy="79.88" r="5.73"/><circle class="cls-2" cx="188.94" cy="79.88" r="5.73"/><circle class="cls-2" cx="209.22" cy="79.88" r="5.73"/><circle class="cls-2" cx="47.01" cy="79.88" r="5.73"/><circle class="cls-2" cx="67.28" cy="79.88" r="5.73"/><circle class="cls-2" cx="26.73" cy="79.88" r="5.73"/><circle class="cls-2" cx="87.56" cy="79.88" r="5.73"/><circle class="cls-2" cx="107.84" cy="79.88" r="5.73"/><circle class="cls-2" cx="229.49" cy="79.88" r="5.73"/><circle class="cls-2" cx="249.77" cy="79.88" r="5.73"/></g></svg>