<svg id="Capa_1" data-name="Capa 1" xmlns="http://www.w3.org/2000/svg" viewBox="0 0 629.59 486"><defs><style>.cls-1{fill:#fff;}</style></defs><polygon class="cls-1" points="117.81 375.1 117.81 368.17 147.38 368.17 147.38 375.1 137.13 375.1 137.13 405.63 128.01 405.63 128.01 375.1 117.81 375.1"/><polygon class="cls-1" points="175.5 368.06 175.5 375 161.94 375 161.94 383.05 173.9 383.05 173.9 389.99 161.94 389.99 161.94 398.69 175.5 398.69 175.5 405.63 152.82 405.63 152.82 368.06 175.5 368.06"/><path class="cls-1" d="M186.73,400.53a19.71,19.71,0,0,1,0-27.48,18.83,18.83,0,0,1,13.63-5.42,19.18,19.18,0,0,1,11.1,3.31,17.23,17.23,0,0,1,6.78,9.18H207.36a7.19,7.19,0,0,0-6.84-4.11,9.56,9.56,0,0,0-7.39,2.93,12.78,12.78,0,0,0,0,15.69,9.53,9.53,0,0,0,7.39,2.94,7.19,7.19,0,0,0,6.84-4.11h10.88a17.27,17.27,0,0,1-6.78,9.18,19.26,19.26,0,0,1-11.1,3.31,18.83,18.83,0,0,1-13.63-5.42"/><polygon class="cls-1" points="247.7 368.16 256.82 368.16 256.82 405.63 247.7 405.63 247.7 390.1 233.24 390.1 233.24 405.63 224.11 405.63 224.11 368.16 233.24 368.16 233.24 383.16 247.7 383.16 247.7 368.16"/><polygon class="cls-1" points="289.21 368.06 298.34 368.06 298.34 405.63 289.21 405.63 273.95 381.99 273.95 405.63 264.82 405.63 264.82 368.06 273.95 368.06 289.21 391.7 289.21 368.06"/><path class="cls-1" d="M309.73,400.56a19.74,19.74,0,0,1,0-27.51,19.86,19.86,0,0,1,27.27,0,19.86,19.86,0,0,1,0,27.51,19.77,19.77,0,0,1-27.24,0m20.81-5.93a12.78,12.78,0,0,0,0-15.69,10.32,10.32,0,0,0-14.41,0,12.78,12.78,0,0,0,0,15.69,10.3,10.3,0,0,0,14.41,0"/><polygon class="cls-1" points="348.39 368.16 357.51 368.16 357.51 398.69 368.88 398.69 368.88 405.63 348.39 405.63 348.39 368.16"/><path class="cls-1" d="M377.34,400.56a19.74,19.74,0,0,1,0-27.51,19.85,19.85,0,0,1,27.26,0,19.85,19.85,0,0,1,0,27.51,19.77,19.77,0,0,1-27.24,0m20.81-5.93a12.78,12.78,0,0,0,0-15.69,10.32,10.32,0,0,0-14.41,0,12.78,12.78,0,0,0,0,15.69,10.3,10.3,0,0,0,14.41,0"/><path class="cls-1" d="M419.39,400.53a19.71,19.71,0,0,1,0-27.48A18.82,18.82,0,0,1,433,367.63a19.23,19.23,0,0,1,11.1,3.31,17.23,17.23,0,0,1,6.78,9.18H440a7.16,7.16,0,0,0-6.83-4.11,9.56,9.56,0,0,0-7.39,2.93,12.75,12.75,0,0,0,0,15.69,9.34,9.34,0,0,0,7.23,2.94,8.27,8.27,0,0,0,5.31-1.63,7.83,7.83,0,0,0,2.75-4.35H430.51v-6.94H450.9v6.94a18.23,18.23,0,0,1-5.61,9.55,16.79,16.79,0,0,1-5.41,3.47A17.81,17.81,0,0,1,433,406a18.82,18.82,0,0,1-13.63-5.42"/><rect class="cls-1" x="456.77" y="368.16" width="9.13" height="37.46"/><polygon class="cls-1" points="496.57 368.06 496.57 375 483.02 375 483.02 383.05 494.97 383.05 494.97 389.99 483.02 389.99 483.02 398.69 496.57 398.69 496.57 405.63 473.89 405.63 473.89 368.06 496.57 368.06"/><path class="cls-1" d="M517.12,374.83a4.24,4.24,0,0,0-2.8.91,3.22,3.22,0,0,0-1.1,2.62,3.73,3.73,0,0,0,1,2.74,6.56,6.56,0,0,0,2.64,1.61c1.08.37,2.29.73,3.63,1.06a41.26,41.26,0,0,1,4,1.23,17.28,17.28,0,0,1,3.6,1.79,7.78,7.78,0,0,1,2.64,3,10,10,0,0,1,1,4.67,10.46,10.46,0,0,1-3.87,8.14Q524,406,517.68,406t-10.2-3a10.38,10.38,0,0,1-3.86-8.65h9.71q.38,4.49,4.59,4.49a4.39,4.39,0,0,0,3.09-1,3.46,3.46,0,0,0,1.12-2.65,3.55,3.55,0,0,0-1-2.61,7,7,0,0,0-2.64-1.6c-1.09-.39-2.3-.76-3.63-1.1a35.15,35.15,0,0,1-4-1.25,20.14,20.14,0,0,1-3.6-1.79,7.58,7.58,0,0,1-2.64-3,9.77,9.77,0,0,1-1-4.61,10.24,10.24,0,0,1,3.89-8.38,15.35,15.35,0,0,1,10-3.15,16.17,16.17,0,0,1,9.79,2.75q3.72,2.75,3.89,8.67h-9.92a5,5,0,0,0-1.31-3.12,3.79,3.79,0,0,0-2.8-1.1"/><path class="cls-1" d="M260.76,39.5,249.64,287.26,125,176.31l-9.24,9.26L254.39,337.26A16.17,16.17,0,0,0,265.8,342,15.59,15.59,0,0,0,282,326.21L273.27,39.5Z"/><rect class="cls-1" x="317.47" y="216.68" width="21.03" height="115.62"/><path class="cls-1" d="M409.49,315.22c-7.09,0-11.81-2.79-11.81-16.43V166.3h-21V301.21c0,20.53,11.06,33.28,28.88,33.28a41.63,41.63,0,0,0,14.09-2.75l1.38-.48v-19.5l-3,1.48a19.21,19.21,0,0,1-8.55,2"/><path class="cls-1" d="M487.58,213.59c-31.17,0-51.32,24-51.32,61.22,0,36.23,20.63,60.56,51.32,60.56S538.9,311,538.9,274.81c0-37.19-20.14-61.22-51.32-61.22m0,102.73c-17.72,0-29.63-16.68-29.63-41.51,0-25.75,11.63-42.38,29.63-42.38s29.63,16.63,29.63,42.38c0,24.83-11.91,41.51-29.63,41.51"/></svg>